<?xml version="1.0" encoding="UTF-8" standalone="no"?>
<!-- Created with Inkscape (http://www.inkscape.org/) -->

<svg
   version="1.1"
   id="svg2"
   width="1291.2733"
   height="1291.3066"
   viewBox="0 0 1291.2733 1291.3066"
   sodipodi:docname="957268_OEVLWK1.eps"
   xmlns:inkscape="http://www.inkscape.org/namespaces/inkscape"
   xmlns:sodipodi="http://sodipodi.sourceforge.net/DTD/sodipodi-0.dtd"
   xmlns="http://www.w3.org/2000/svg"
   xmlns:svg="http://www.w3.org/2000/svg">
  <defs
     id="defs6" />
  <sodipodi:namedview
     id="namedview4"
     pagecolor="#505050"
     bordercolor="#eeeeee"
     borderopacity="1"
     inkscape:showpageshadow="0"
     inkscape:pageopacity="0"
     inkscape:pagecheckerboard="0"
     inkscape:deskcolor="#505050"
     showgrid="false" />
  <g
     id="g10"
     inkscape:groupmode="layer"
     inkscape:label="Page 1"
     transform="matrix(1.3333333,0,0,-1.3333333,-182.7,1716.9865)">
    <g
       id="g12"
       transform="scale(0.1)">
      <path
         d="m 11054.8,8034.8 c 0,-2674.1 -2167.45,-4842.2 -4842.28,-4842.2 -2674.05,0 -4842.27,2168.1 -4842.27,4842.2 0,2674.8 2168.22,4842.6 4842.27,4842.6 2674.83,0 4842.28,-2167.8 4842.28,-4842.6"
         style="fill:#f38618;fill-opacity:1;fill-rule:nonzero;stroke:none"
         id="path116" />
      <path
         d="m 5855.99,5963.7 514.25,338.2 1952.04,1090.3 -914.47,2198.2 -615.51,932.1 -2349.09,-778.9 608.1,1693.3 -3236.34,-1372.8 C 1529.71,9446.9 1370.25,8759.5 1370.25,8034.8 1370.25,5828.9 2845.7,3967.6 4863.33,3383.3 L 8781.97,4729.4 5855.99,5963.7"
         style="fill:#dc731b;fill-opacity:1;fill-rule:nonzero;stroke:none"
         id="path118" />
      <path
         d="m 4554.86,4913.7 c -14.05,54.5 -33.13,107.6 -50.37,160.2 -21.08,51.3 -41.5,101.9 -65.31,149 -22.82,47.7 -47.83,92.1 -74.28,132.8 -24,41.8 -53.16,77.7 -77.98,111.4 -52.75,65.8 -103.01,114.9 -140.55,146.1 -38.11,30.9 -62.21,44.8 -62.21,44.8 0,0 16.38,-22.7 41.45,-63.2 12.34,-20.5 27.06,-45.2 43.01,-73.9 16.68,-28.1 32.04,-62.2 51.34,-97.1 16.46,-36.7 36.07,-75 53.65,-117.3 19.09,-41.3 35.04,-86.8 53.49,-132.8 18.96,-45.7 31.62,-95.8 49.96,-144.3 13.17,-50.5 30.75,-100.3 43.15,-151.8 11.44,-49.8 26.41,-98.6 35.97,-148.2 h 136.78 c -1.03,6.8 -2.05,13.7 -3.12,20.6 -6.87,54.8 -23.17,108.9 -34.98,163.7"
         style="fill:#192f3a;fill-opacity:1;fill-rule:nonzero;stroke:none"
         id="path1108" />
      <path
         d="m 7940.18,4965.9 c 18.25,48.4 30.95,98.6 49.92,144.3 18.49,45.9 34.42,91.5 53.46,132.8 17.59,42.3 37.26,80.5 53.69,117.3 19.27,34.9 34.66,69 51.33,97.1 15.99,28.7 30.71,53.4 43.03,73.9 25.12,40.5 41.38,63.2 41.38,63.2 0,0 -24.01,-13.9 -62.12,-44.9 -37.68,-31.1 -87.86,-80.2 -140.61,-146 -24.8,-33.7 -53.98,-69.6 -77.98,-111.4 -26.37,-40.7 -51.43,-85.1 -74.28,-132.8 -23.76,-47.1 -44.23,-97.7 -65.28,-149.1 -17.24,-52.5 -36.32,-105.6 -50.35,-160.1 -8.87,-41.2 -20.3,-82.1 -28.34,-123.1 h 141.03 c 7.35,28.9 15.2,57.8 21.91,87 12.49,51.5 30.01,101.2 43.21,151.8"
         style="fill:#192f3a;fill-opacity:1;fill-rule:nonzero;stroke:none"
         id="path1110" />
      <path
         d="m 4431.48,9241.1 c 0,0 -58.67,-1368.8 -392.86,-1859 0,0 1826.76,-1125 4321.81,33.5 0,0 -467.84,724 -323.01,1681.9 l -3605.94,143.6"
         style="fill:#6b3517;fill-opacity:1;fill-rule:nonzero;stroke:none"
         id="path1112" />
      <path
         d="M 6815.18,6037 H 5507.72 V 7583.7 H 6815.18 V 6037"
         style="fill:#ffffff;fill-opacity:1;fill-rule:nonzero;stroke:none"
         id="path1114" />
      <path
         d="m 5505.75,6770.8 1347.87,755 -1348.19,309.3 z"
         style="fill:#acabab;fill-opacity:1;fill-rule:nonzero;stroke:none"
         id="path1116" />
      <path
         d="m 4503.29,9483.7 c 0,-1161.9 725.97,-2106.2 1628.93,-2132.1 v 3845.1 c -887.38,-28.8 -1628.93,-567.2 -1628.93,-1713"
         style="fill:#e1e8e0;fill-opacity:1;fill-rule:nonzero;stroke:none"
         id="path1118" />
      <path
         d="m 6208,11198.1 c -25.33,0 -50.59,-0.6 -75.78,-1.4 V 7351.6 c 12.66,-0.3 25.22,-1.2 38,-1.2 920.64,0 1666.84,955.1 1666.84,2133.3 0,1178.3 -708.39,1714.4 -1629.06,1714.4"
         style="fill:#ffffff;fill-opacity:1;fill-rule:nonzero;stroke:none"
         id="path1120" />
      <path
         d="m 6853.14,10539.9 c 0,0 172.06,-817.3 1075.5,-989.4 0,0 387.17,2194.1 -1591.74,2194.1 -1978.93,0 -2065,-1290.7 -2065,-2194.1 0,0 1462.72,-129.1 2581.24,989.4"
         style="fill:#6b3517;fill-opacity:1;fill-rule:nonzero;stroke:none"
         id="path1122" />
      <path
         d="m 7669.06,9349.8 c -35.86,-245.9 33.03,-459.7 153.73,-477.4 120.74,-17.9 247.71,167.1 283.47,413.1 35.85,245.9 -33.06,459.7 -153.76,477.5 -120.7,17.8 -247.68,-167.2 -283.44,-413.2"
         style="fill:#ffffff;fill-opacity:1;fill-rule:nonzero;stroke:none"
         id="path1124" />
      <path
         d="m 4616.25,9370 c 23.4,-242.8 -47.47,-448.4 -158.23,-459.1 -110.71,-10.8 -219.49,177.2 -242.88,420 -23.37,242.8 47.52,448.3 158.26,459.1 110.73,10.7 219.53,-177.3 242.85,-420"
         style="fill:#e1e8e0;fill-opacity:1;fill-rule:nonzero;stroke:none"
         id="path1126" />
      <path
         d="m 7316.12,5722 -298.19,-21.2 234.28,-191.7 -367.78,-779.7 h 849.6 c 8.04,41 19.47,81.8 28.34,123.1 14.03,54.5 33.11,107.6 50.35,160.1 21.05,51.3 41.52,102 65.28,149.1 22.85,47.6 47.91,92.1 74.28,132.7 24,41.9 53.18,77.7 77.98,111.4 52.75,65.9 102.93,115 140.61,146.1 38.11,31 62.12,44.9 62.12,44.9 0,0 -16.26,-22.7 -41.38,-63.2 -12.32,-20.5 -27.04,-45.2 -43.03,-74 -16.67,-28.1 -32.06,-62.1 -51.33,-97.1 -16.43,-36.7 -36.1,-74.9 -53.69,-117.3 -19.04,-41.2 -34.97,-86.8 -53.46,-132.7 -18.97,-45.7 -31.67,-95.9 -49.92,-144.3 -13.2,-50.5 -30.72,-100.3 -43.21,-151.9 -6.71,-29.1 -14.56,-58 -21.91,-86.9 h 906.91 C 8651.55,5226.6 8257.5,6311 7254.64,6616.9 l 104.08,-42.9 -42.6,-852"
         style="fill:#2f5371;fill-opacity:1;fill-rule:nonzero;stroke:none"
         id="path1128" />
      <path
         d="m 4420.21,4877.6 c -12.4,51.5 -29.98,101.3 -43.15,151.8 -18.34,48.5 -31,98.6 -49.96,144.3 -18.45,46 -34.4,91.5 -53.49,132.8 -17.58,42.3 -37.19,80.6 -53.65,117.3 -19.3,34.9 -34.66,69 -51.34,97.1 -15.95,28.7 -30.67,53.4 -43.01,73.9 -25.07,40.5 -41.45,63.2 -41.45,63.2 0,0 24.1,-13.9 62.21,-44.8 37.54,-31.2 87.8,-80.3 140.55,-146.1 24.82,-33.7 53.98,-69.6 77.98,-111.4 26.45,-40.7 51.46,-85.1 74.28,-132.8 23.81,-47.1 44.23,-97.7 65.31,-149 17.24,-52.6 36.32,-105.7 50.37,-160.2 11.81,-54.8 28.11,-108.9 34.98,-163.7 1.07,-6.9 2.09,-13.8 3.12,-20.6 h 857.16 l -455.64,779.7 255.65,212.9 -340.8,21.3 42.59,745.5 214.73,114.5 C 4782.96,6499.1 3772.88,6098.1 3535.56,4729.4 h 920.62 c -9.56,49.6 -24.53,98.4 -35.97,148.2"
         style="fill:#2f5371;fill-opacity:1;fill-rule:nonzero;stroke:none"
         id="path1130" />
      <path
         d="m 5914.22,6546.1 -573.21,86.2 -8.15,-8 -36.68,-35.9 535.9,-1576.7 95.98,-282.3 h 233.55 v 1772 l -247.39,44.7"
         style="fill:#acdee2;fill-opacity:1;fill-rule:nonzero;stroke:none"
         id="path1132" />
      <path
         d="m 6972.91,6713.9 -534.83,-262.4 -276.47,49.9 v -1772 h 302.92 l 74.76,282.3 407.3,1537.5 41.05,142.6 -14.73,22.1"
         style="fill:#caedef;fill-opacity:1;fill-rule:nonzero;stroke:none"
         id="path1134" />
      <path
         d="m 7358.72,6574 -104.08,42.9 -258.03,106.2 -8.97,-31.3 -41.05,-142.6 -407.51,-1415.5 -116.4,-404.3 h 134.52 327.23 l 367.78,779.7 -234.28,191.7 298.19,21.2 42.6,852"
         style="fill:#192f3a;fill-opacity:1;fill-rule:nonzero;stroke:none"
         id="path1136" />
      <path
         d="m 5831.76,5057 -535.58,1531.4 -14.67,42 -10.08,28.8 -104.78,-55.9 -214.73,-114.5 -42.59,-745.5 340.8,-21.3 -255.65,-212.9 455.64,-779.7 h 364.29 131.91 L 5831.76,5057"
         style="fill:#192f3a;fill-opacity:1;fill-rule:nonzero;stroke:none"
         id="path1138" />
      <path
         d="m 5505.72,6850.9 660.27,-362.1 -571.25,-758.6 -323.31,929 234.29,191.7"
         style="fill:#91c7d8;fill-opacity:1;fill-rule:nonzero;stroke:none"
         id="path1140" />
      <path
         d="m 6826.24,6872.1 170.37,-149 -260.27,-907 -570.35,672.7 660.25,383.3"
         style="fill:#91c7d8;fill-opacity:1;fill-rule:nonzero;stroke:none"
         id="path1142" />
      <path
         d="m 4356.72,9828.1 c 0,0 287.13,1446.5 1667.36,1446.5 1380.2,0 1744.66,-1258.8 1744.66,-1258.8 l -209.8,-22.1 c 0,0 -342.33,949.6 -1496.23,949.6 -1153.86,0 -1562.44,-1115.2 -1562.44,-1115.2 h -143.55"
         style="fill:#192f3a;fill-opacity:1;fill-rule:nonzero;stroke:none"
         id="path1144" />
      <path
         d="m 7614.13,9905.4 c 0,0 132.51,-1126.3 99.34,-1203.6 0,0 441.72,-66.3 452.75,287.1 v 607.3 c 0,0 -17.8,213.1 -276.03,309.2 h -231.95"
         style="fill:#2f5371;fill-opacity:1;fill-rule:nonzero;stroke:none"
         id="path1146" />
      <path
         d="m 6394.62,8056.3 c 0,0 976.58,76.5 1374.12,542 0,0 98.89,70.1 169.11,-70.1 70.15,-140.3 -975.69,-612.2 -1543.23,-637.7 0,0 -25.48,-102 -306.01,-108.4 -280.61,-6.4 -344.34,89.2 -344.34,89.2 0,0 -133.93,153.1 25.5,261.5 159.36,108.4 292.94,66 292.94,66 0,0 274.57,-15 331.91,-142.5"
         style="fill:#192f3a;fill-opacity:1;fill-rule:nonzero;stroke:none"
         id="path1148" />
    </g>
  </g>
</svg>
